<svg xmlns="http://www.w3.org/2000/svg" xmlns:xlink="http://www.w3.org/1999/xlink" width="322" zoomAndPan="magnify" viewBox="0 0 241.5 141.749996" height="189" preserveAspectRatio="xMidYMid meet" version="1.0"><defs><g/><clipPath id="34b006398a"><path d="M 176 112 L 182 112 L 182 134 L 176 134 Z M 176 112 " clip-rule="nonzero"/></clipPath><clipPath id="3e36929d4f"><path d="M 113.332031 21.570312 L 216.15625 0.296875 L 241.070312 120.75 L 138.25 142.019531 Z M 113.332031 21.570312 " clip-rule="nonzero"/></clipPath><clipPath id="03a1de0329"><path d="M 113.332031 21.570312 L 216.15625 0.296875 L 241.070312 120.75 L 138.25 142.019531 Z M 113.332031 21.570312 " clip-rule="nonzero"/></clipPath><clipPath id="991e46478f"><path d="M 155 12 L 161 12 L 161 34 L 155 34 Z M 155 12 " clip-rule="nonzero"/></clipPath><clipPath id="f8eec54b41"><path d="M 113.332031 21.570312 L 216.15625 0.296875 L 241.070312 120.75 L 138.25 142.019531 Z M 113.332031 21.570312 " clip-rule="nonzero"/></clipPath><clipPath id="8be50e0546"><path d="M 113.332031 21.570312 L 216.15625 0.296875 L 241.070312 120.75 L 138.25 142.019531 Z M 113.332031 21.570312 " clip-rule="nonzero"/></clipPath><clipPath id="af572b4ac4"><path d="M 208 60 L 229 60 L 229 66 L 208 66 Z M 208 60 " clip-rule="nonzero"/></clipPath><clipPath id="3a174ccb49"><path d="M 113.332031 21.570312 L 216.15625 0.296875 L 241.070312 120.75 L 138.25 142.019531 Z M 113.332031 21.570312 " clip-rule="nonzero"/></clipPath><clipPath id="851aa5f3ed"><path d="M 113.332031 21.570312 L 216.15625 0.296875 L 241.070312 120.75 L 138.25 142.019531 Z M 113.332031 21.570312 " clip-rule="nonzero"/></clipPath><clipPath id="ca4a597d50"><path d="M 134 106 L 147 106 L 147 125 L 134 125 Z M 134 106 " clip-rule="nonzero"/></clipPath><clipPath id="5e1bdc96e1"><path d="M 113.332031 21.570312 L 216.15625 0.296875 L 241.070312 120.75 L 138.25 142.019531 Z M 113.332031 21.570312 " clip-rule="nonzero"/></clipPath><clipPath id="ae2787a9d7"><path d="M 113.332031 21.570312 L 216.15625 0.296875 L 241.070312 120.75 L 138.25 142.019531 Z M 113.332031 21.570312 " clip-rule="nonzero"/></clipPath><clipPath id="6ed548a331"><path d="M 190 21 L 203 21 L 203 40 L 190 40 Z M 190 21 " clip-rule="nonzero"/></clipPath><clipPath id="c297cd1aea"><path d="M 113.332031 21.570312 L 216.15625 0.296875 L 241.070312 120.75 L 138.25 142.019531 Z M 113.332031 21.570312 " clip-rule="nonzero"/></clipPath><clipPath id="55eb861a12"><path d="M 113.332031 21.570312 L 216.15625 0.296875 L 241.070312 120.75 L 138.25 142.019531 Z M 113.332031 21.570312 " clip-rule="nonzero"/></clipPath><clipPath id="a9b1d30429"><path d="M 117 39 L 135 39 L 135 52 L 117 52 Z M 117 39 " clip-rule="nonzero"/></clipPath><clipPath id="546f2f24de"><path d="M 113.332031 21.570312 L 216.15625 0.296875 L 241.070312 120.75 L 138.25 142.019531 Z M 113.332031 21.570312 " clip-rule="nonzero"/></clipPath><clipPath id="8fc4c230f6"><path d="M 113.332031 21.570312 L 216.15625 0.296875 L 241.070312 120.75 L 138.25 142.019531 Z M 113.332031 21.570312 " clip-rule="nonzero"/></clipPath><clipPath id="4ac4223b21"><path d="M 202 95 L 220 95 L 220 107 L 202 107 Z M 202 95 " clip-rule="nonzero"/></clipPath><clipPath id="4a1cd269e5"><path d="M 113.332031 21.570312 L 216.15625 0.296875 L 241.070312 120.75 L 138.25 142.019531 Z M 113.332031 21.570312 " clip-rule="nonzero"/></clipPath><clipPath id="44143d0550"><path d="M 113.332031 21.570312 L 216.15625 0.296875 L 241.070312 120.75 L 138.25 142.019531 Z M 113.332031 21.570312 " clip-rule="nonzero"/></clipPath><clipPath id="57af9f76b0"><path d="M 202 38 L 220 38 L 220 51 L 202 51 Z M 202 38 " clip-rule="nonzero"/></clipPath><clipPath id="6e0c290086"><path d="M 113.332031 21.570312 L 216.15625 0.296875 L 241.070312 120.75 L 138.25 142.019531 Z M 113.332031 21.570312 " clip-rule="nonzero"/></clipPath><clipPath id="d2ca89b4f6"><path d="M 113.332031 21.570312 L 216.15625 0.296875 L 241.070312 120.75 L 138.25 142.019531 Z M 113.332031 21.570312 " clip-rule="nonzero"/></clipPath><clipPath id="07e9d42de1"><path d="M 134 21 L 147 21 L 147 40 L 134 40 Z M 134 21 " clip-rule="nonzero"/></clipPath><clipPath id="88c51c08d0"><path d="M 113.332031 21.570312 L 216.15625 0.296875 L 241.070312 120.75 L 138.25 142.019531 Z M 113.332031 21.570312 " clip-rule="nonzero"/></clipPath><clipPath id="c3a95d16a1"><path d="M 113.332031 21.570312 L 216.15625 0.296875 L 241.070312 120.75 L 138.25 142.019531 Z M 113.332031 21.570312 " clip-rule="nonzero"/></clipPath><clipPath id="fd569ceed2"><path d="M 190 106 L 203 106 L 203 125 L 190 125 Z M 190 106 " clip-rule="nonzero"/></clipPath><clipPath id="19276641be"><path d="M 113.332031 21.570312 L 216.15625 0.296875 L 241.070312 120.75 L 138.25 142.019531 Z M 113.332031 21.570312 " clip-rule="nonzero"/></clipPath><clipPath id="bcd16c8dc4"><path d="M 113.332031 21.570312 L 216.15625 0.296875 L 241.070312 120.75 L 138.25 142.019531 Z M 113.332031 21.570312 " clip-rule="nonzero"/></clipPath><clipPath id="ac29ed0222"><path d="M 208 80 L 229 80 L 229 86 L 208 86 Z M 208 80 " clip-rule="nonzero"/></clipPath><clipPath id="8d76947491"><path d="M 113.332031 21.570312 L 216.15625 0.296875 L 241.070312 120.75 L 138.25 142.019531 Z M 113.332031 21.570312 " clip-rule="nonzero"/></clipPath><clipPath id="b8f5643033"><path d="M 113.332031 21.570312 L 216.15625 0.296875 L 241.070312 120.75 L 138.25 142.019531 Z M 113.332031 21.570312 " clip-rule="nonzero"/></clipPath><clipPath id="3e06df7ff0"><path d="M 176 12 L 181 12 L 181 34 L 176 34 Z M 176 12 " clip-rule="nonzero"/></clipPath><clipPath id="e231806543"><path d="M 113.332031 21.570312 L 216.15625 0.296875 L 241.070312 120.75 L 138.25 142.019531 Z M 113.332031 21.570312 " clip-rule="nonzero"/></clipPath><clipPath id="156ef61836"><path d="M 113.332031 21.570312 L 216.15625 0.296875 L 241.070312 120.75 L 138.25 142.019531 Z M 113.332031 21.570312 " clip-rule="nonzero"/></clipPath><clipPath id="c99efde96b"><path d="M 155 112 L 161 112 L 161 134 L 155 134 Z M 155 112 " clip-rule="nonzero"/></clipPath><clipPath id="c930dab588"><path d="M 113.332031 21.570312 L 216.15625 0.296875 L 241.070312 120.75 L 138.25 142.019531 Z M 113.332031 21.570312 " clip-rule="nonzero"/></clipPath><clipPath id="8d3bc8e1e9"><path d="M 113.332031 21.570312 L 216.15625 0.296875 L 241.070312 120.75 L 138.25 142.019531 Z M 113.332031 21.570312 " clip-rule="nonzero"/></clipPath><clipPath id="ae33b1fa9b"><path d="M 168 113 L 170 113 L 170 125 L 168 125 Z M 168 113 " clip-rule="nonzero"/></clipPath><clipPath id="1d60b2b7e5"><path d="M 113.332031 21.570312 L 216.15625 0.296875 L 241.070312 120.75 L 138.25 142.019531 Z M 113.332031 21.570312 " clip-rule="nonzero"/></clipPath><clipPath id="41fcd6a7f4"><path d="M 113.332031 21.570312 L 216.15625 0.296875 L 241.070312 120.75 L 138.25 142.019531 Z M 113.332031 21.570312 " clip-rule="nonzero"/></clipPath><clipPath id="3d14583237"><path d="M 167 21 L 169 21 L 169 33 L 167 33 Z M 167 21 " clip-rule="nonzero"/></clipPath><clipPath id="326896b8e4"><path d="M 113.332031 21.570312 L 216.15625 0.296875 L 241.070312 120.75 L 138.25 142.019531 Z M 113.332031 21.570312 " clip-rule="nonzero"/></clipPath><clipPath id="71261dac4e"><path d="M 113.332031 21.570312 L 216.15625 0.296875 L 241.070312 120.75 L 138.25 142.019531 Z M 113.332031 21.570312 " clip-rule="nonzero"/></clipPath><clipPath id="dd1a2b5b84"><path d="M 208 72 L 220 72 L 220 74 L 208 74 Z M 208 72 " clip-rule="nonzero"/></clipPath><clipPath id="12acb17bc0"><path d="M 113.332031 21.570312 L 216.15625 0.296875 L 241.070312 120.75 L 138.25 142.019531 Z M 113.332031 21.570312 " clip-rule="nonzero"/></clipPath><clipPath id="eeb1a74f8e"><path d="M 113.332031 21.570312 L 216.15625 0.296875 L 241.070312 120.75 L 138.25 142.019531 Z M 113.332031 21.570312 " clip-rule="nonzero"/></clipPath><clipPath id="76855b6e00"><path d="M 196 36 L 205 36 L 205 45 L 196 45 Z M 196 36 " clip-rule="nonzero"/></clipPath><clipPath id="940dfa8294"><path d="M 113.332031 21.570312 L 216.15625 0.296875 L 241.070312 120.75 L 138.25 142.019531 Z M 113.332031 21.570312 " clip-rule="nonzero"/></clipPath><clipPath id="2612164692"><path d="M 113.332031 21.570312 L 216.15625 0.296875 L 241.070312 120.75 L 138.25 142.019531 Z M 113.332031 21.570312 " clip-rule="nonzero"/></clipPath><clipPath id="2c628f8262"><path d="M 131 36 L 140 36 L 140 45 L 131 45 Z M 131 36 " clip-rule="nonzero"/></clipPath><clipPath id="9baa04b009"><path d="M 113.332031 21.570312 L 216.15625 0.296875 L 241.070312 120.75 L 138.25 142.019531 Z M 113.332031 21.570312 " clip-rule="nonzero"/></clipPath><clipPath id="42250e78fa"><path d="M 113.332031 21.570312 L 216.15625 0.296875 L 241.070312 120.75 L 138.25 142.019531 Z M 113.332031 21.570312 " clip-rule="nonzero"/></clipPath><clipPath id="ae647c3e88"><path d="M 197 101 L 206 101 L 206 110 L 197 110 Z M 197 101 " clip-rule="nonzero"/></clipPath><clipPath id="13e0f1a3b4"><path d="M 113.332031 21.570312 L 216.15625 0.296875 L 241.070312 120.75 L 138.25 142.019531 Z M 113.332031 21.570312 " clip-rule="nonzero"/></clipPath><clipPath id="1043ef2ef9"><path d="M 113.332031 21.570312 L 216.15625 0.296875 L 241.070312 120.75 L 138.25 142.019531 Z M 113.332031 21.570312 " clip-rule="nonzero"/></clipPath><clipPath id="a14994032e"><path d="M 205 53 L 217 53 L 217 58 L 205 58 Z M 205 53 " clip-rule="nonzero"/></clipPath><clipPath id="1efc6c42c9"><path d="M 113.332031 21.570312 L 216.15625 0.296875 L 241.070312 120.75 L 138.25 142.019531 Z M 113.332031 21.570312 " clip-rule="nonzero"/></clipPath><clipPath id="1212c79eb5"><path d="M 113.332031 21.570312 L 216.15625 0.296875 L 241.070312 120.75 L 138.25 142.019531 Z M 113.332031 21.570312 " clip-rule="nonzero"/></clipPath><clipPath id="29cfb92fc3"><path d="M 148 25 L 154 25 L 154 36 L 148 36 Z M 148 25 " clip-rule="nonzero"/></clipPath><clipPath id="323250145b"><path d="M 113.332031 21.570312 L 216.15625 0.296875 L 241.070312 120.75 L 138.25 142.019531 Z M 113.332031 21.570312 " clip-rule="nonzero"/></clipPath><clipPath id="1b2b2f6ac0"><path d="M 113.332031 21.570312 L 216.15625 0.296875 L 241.070312 120.75 L 138.25 142.019531 Z M 113.332031 21.570312 " clip-rule="nonzero"/></clipPath><clipPath id="294b1788f3"><path d="M 183 110 L 189 110 L 189 121 L 183 121 Z M 183 110 " clip-rule="nonzero"/></clipPath><clipPath id="0586e514ec"><path d="M 113.332031 21.570312 L 216.15625 0.296875 L 241.070312 120.75 L 138.25 142.019531 Z M 113.332031 21.570312 " clip-rule="nonzero"/></clipPath><clipPath id="3b921165da"><path d="M 113.332031 21.570312 L 216.15625 0.296875 L 241.070312 120.75 L 138.25 142.019531 Z M 113.332031 21.570312 " clip-rule="nonzero"/></clipPath><clipPath id="8cc95ea0c2"><path d="M 205 88 L 217 88 L 217 94 L 205 94 Z M 205 88 " clip-rule="nonzero"/></clipPath><clipPath id="307c385cdf"><path d="M 113.332031 21.570312 L 216.15625 0.296875 L 241.070312 120.75 L 138.25 142.019531 Z M 113.332031 21.570312 " clip-rule="nonzero"/></clipPath><clipPath id="4e6e0dc0e5"><path d="M 113.332031 21.570312 L 216.15625 0.296875 L 241.070312 120.75 L 138.25 142.019531 Z M 113.332031 21.570312 " clip-rule="nonzero"/></clipPath><clipPath id="8c3909c475"><path d="M 183 25 L 189 25 L 189 36 L 183 36 Z M 183 25 " clip-rule="nonzero"/></clipPath><clipPath id="11aefc9abf"><path d="M 113.332031 21.570312 L 216.15625 0.296875 L 241.070312 120.75 L 138.25 142.019531 Z M 113.332031 21.570312 " clip-rule="nonzero"/></clipPath><clipPath id="86fd736928"><path d="M 113.332031 21.570312 L 216.15625 0.296875 L 241.070312 120.75 L 138.25 142.019531 Z M 113.332031 21.570312 " clip-rule="nonzero"/></clipPath><clipPath id="9b186a1a0f"><path d="M 148 110 L 154 110 L 154 121 L 148 121 Z M 148 110 " clip-rule="nonzero"/></clipPath><clipPath id="3d470c56b2"><path d="M 113.332031 21.570312 L 216.15625 0.296875 L 241.070312 120.75 L 138.25 142.019531 Z M 113.332031 21.570312 " clip-rule="nonzero"/></clipPath><clipPath id="e8508f3fcb"><path d="M 113.332031 21.570312 L 216.15625 0.296875 L 241.070312 120.75 L 138.25 142.019531 Z M 113.332031 21.570312 " clip-rule="nonzero"/></clipPath></defs><g clip-path="url(#34b006398a)"><g clip-path="url(#3e36929d4f)"><g clip-path="url(#03a1de0329)"><path fill="#a6a6a6" d="M 176.6875 112.652344 C 176.578125 112.671875 176.496094 112.730469 176.433594 112.820312 C 176.375 112.914062 176.355469 113.011719 176.378906 113.121094 L 180.453125 132.828125 C 180.476562 132.933594 180.535156 133.015625 180.625 133.078125 C 180.71875 133.136719 180.816406 133.15625 180.925781 133.136719 C 181.03125 133.113281 181.113281 133.054688 181.175781 132.964844 C 181.234375 132.871094 181.253906 132.773438 181.234375 132.664062 L 177.15625 112.960938 C 177.132812 112.851562 177.078125 112.769531 176.984375 112.707031 C 176.894531 112.648438 176.792969 112.628906 176.6875 112.652344 Z M 176.6875 112.652344 " fill-opacity="1" fill-rule="nonzero"/></g></g></g><g clip-path="url(#991e46478f)"><g clip-path="url(#f8eec54b41)"><g clip-path="url(#8be50e0546)"><path fill="#a6a6a6" d="M 160.261719 33.378906 C 160.367188 33.355469 160.449219 33.300781 160.511719 33.207031 C 160.570312 33.117188 160.589844 33.015625 160.570312 32.910156 L 156.484375 13.160156 C 156.46875 13.046875 156.414062 12.957031 156.320312 12.886719 C 156.226562 12.820312 156.121094 12.796875 156.007812 12.824219 C 155.894531 12.847656 155.808594 12.90625 155.75 13.007812 C 155.6875 13.105469 155.675781 13.210938 155.707031 13.324219 L 159.792969 33.070312 C 159.816406 33.175781 159.871094 33.261719 159.964844 33.320312 C 160.054688 33.382812 160.152344 33.402344 160.261719 33.378906 Z M 160.261719 33.378906 " fill-opacity="1" fill-rule="nonzero"/></g></g></g><g clip-path="url(#af572b4ac4)"><g clip-path="url(#3a174ccb49)"><g clip-path="url(#851aa5f3ed)"><path fill="#a6a6a6" d="M 228.128906 60.222656 L 208.40625 64.304688 C 208.292969 64.316406 208.199219 64.371094 208.132812 64.464844 C 208.066406 64.558594 208.042969 64.664062 208.066406 64.777344 C 208.089844 64.890625 208.152344 64.976562 208.25 65.039062 C 208.351562 65.097656 208.457031 65.113281 208.566406 65.078125 L 228.289062 61 C 228.398438 60.976562 228.480469 60.917969 228.542969 60.828125 C 228.601562 60.734375 228.621094 60.636719 228.597656 60.527344 C 228.578125 60.421875 228.519531 60.335938 228.429688 60.277344 C 228.335938 60.21875 228.238281 60.199219 228.128906 60.21875 Z M 228.128906 60.222656 " fill-opacity="1" fill-rule="nonzero"/></g></g></g><g clip-path="url(#ca4a597d50)"><g clip-path="url(#5e1bdc96e1)"><g clip-path="url(#ae2787a9d7)"><path fill="#a6a6a6" d="M 146.457031 107.019531 C 146.421875 106.847656 146.316406 106.746094 146.144531 106.714844 C 145.96875 106.679688 145.835938 106.738281 145.738281 106.882812 L 134.648438 123.78125 C 134.554688 123.925781 134.554688 124.074219 134.652344 124.21875 C 134.75 124.367188 134.886719 124.421875 135.058594 124.386719 C 135.167969 124.363281 135.25 124.308594 135.3125 124.21875 L 146.402344 107.316406 C 146.460938 107.226562 146.480469 107.125 146.457031 107.019531 Z M 146.457031 107.019531 " fill-opacity="1" fill-rule="nonzero"/></g></g></g><g clip-path="url(#6ed548a331)"><g clip-path="url(#c297cd1aea)"><g clip-path="url(#55eb861a12)"><path fill="#a6a6a6" d="M 190.636719 39.230469 C 190.726562 39.292969 190.828125 39.308594 190.933594 39.289062 C 191.039062 39.265625 191.125 39.210938 191.183594 39.117188 L 202.289062 22.207031 C 202.355469 22.117188 202.375 22.015625 202.355469 21.90625 C 202.332031 21.796875 202.277344 21.710938 202.183594 21.648438 C 202.089844 21.585938 201.988281 21.566406 201.878906 21.59375 C 201.769531 21.617188 201.683594 21.675781 201.625 21.773438 L 190.523438 38.683594 C 190.460938 38.773438 190.441406 38.871094 190.464844 38.980469 C 190.488281 39.085938 190.542969 39.171875 190.636719 39.230469 Z M 190.636719 39.230469 " fill-opacity="1" fill-rule="nonzero"/></g></g></g><g clip-path="url(#a9b1d30429)"><g clip-path="url(#546f2f24de)"><g clip-path="url(#8fc4c230f6)"><path fill="#a6a6a6" d="M 134.175781 50.953125 C 134.265625 51.023438 134.367188 51.046875 134.484375 51.027344 C 134.597656 51.007812 134.683594 50.949219 134.75 50.855469 C 134.8125 50.757812 134.828125 50.652344 134.800781 50.539062 C 134.773438 50.429688 134.710938 50.34375 134.609375 50.289062 L 117.6875 39.164062 C 117.597656 39.105469 117.5 39.089844 117.394531 39.113281 C 117.289062 39.136719 117.207031 39.195312 117.148438 39.285156 C 117.089844 39.375 117.070312 39.472656 117.089844 39.578125 C 117.109375 39.683594 117.164062 39.765625 117.25 39.828125 Z M 134.175781 50.953125 " fill-opacity="1" fill-rule="nonzero"/></g></g></g><g clip-path="url(#4ac4223b21)"><g clip-path="url(#4a1cd269e5)"><g clip-path="url(#44143d0550)"><path fill="#a6a6a6" d="M 202.851562 95.097656 C 202.703125 95.003906 202.558594 95.003906 202.410156 95.101562 C 202.265625 95.203125 202.210938 95.339844 202.246094 95.511719 C 202.269531 95.617188 202.324219 95.703125 202.414062 95.761719 L 219.238281 106.816406 C 219.328125 106.886719 219.429688 106.914062 219.542969 106.894531 C 219.660156 106.875 219.746094 106.816406 219.808594 106.71875 C 219.875 106.621094 219.890625 106.519531 219.863281 106.40625 C 219.835938 106.292969 219.769531 106.210938 219.671875 106.15625 Z M 202.851562 95.097656 " fill-opacity="1" fill-rule="nonzero"/></g></g></g><g clip-path="url(#57af9f76b0)"><g clip-path="url(#6e0c290086)"><g clip-path="url(#d2ca89b4f6)"><path fill="#a6a6a6" d="M 202.097656 50.332031 C 202.082031 50.398438 202.085938 50.464844 202.105469 50.527344 C 202.125 50.589844 202.160156 50.648438 202.207031 50.695312 C 202.253906 50.742188 202.308594 50.773438 202.375 50.792969 C 202.4375 50.8125 202.5 50.816406 202.566406 50.804688 C 202.617188 50.792969 202.664062 50.773438 202.707031 50.746094 L 219.519531 39.585938 C 219.601562 39.519531 219.652344 39.4375 219.667969 39.335938 C 219.6875 39.230469 219.667969 39.136719 219.609375 39.050781 C 219.550781 38.964844 219.472656 38.910156 219.371094 38.882812 C 219.269531 38.859375 219.175781 38.871094 219.082031 38.921875 L 202.269531 50.085938 C 202.175781 50.144531 202.121094 50.226562 202.097656 50.332031 Z M 202.097656 50.332031 " fill-opacity="1" fill-rule="nonzero"/></g></g></g><g clip-path="url(#07e9d42de1)"><g clip-path="url(#88c51c08d0)"><g clip-path="url(#c3a95d16a1)"><path fill="#a6a6a6" d="M 135.0625 21.929688 C 135 21.839844 134.917969 21.78125 134.8125 21.761719 C 134.703125 21.738281 134.605469 21.757812 134.511719 21.820312 C 134.421875 21.878906 134.363281 21.964844 134.339844 22.070312 C 134.320312 22.179688 134.339844 22.277344 134.402344 22.367188 L 145.570312 39.199219 C 145.671875 39.347656 145.808594 39.402344 145.980469 39.367188 C 146.03125 39.355469 146.078125 39.335938 146.121094 39.308594 C 146.214844 39.246094 146.269531 39.164062 146.289062 39.054688 C 146.308594 38.949219 146.289062 38.847656 146.226562 38.757812 Z M 135.0625 21.929688 " fill-opacity="1" fill-rule="nonzero"/></g></g></g><g clip-path="url(#fd569ceed2)"><g clip-path="url(#19276641be)"><g clip-path="url(#bcd16c8dc4)"><path fill="#a6a6a6" d="M 191.410156 106.84375 C 191.347656 106.757812 191.261719 106.707031 191.160156 106.691406 C 191.054688 106.671875 190.960938 106.691406 190.871094 106.75 C 190.785156 106.808594 190.726562 106.890625 190.703125 106.992188 C 190.679688 107.09375 190.695312 107.191406 190.75 107.28125 L 201.878906 124.050781 C 201.941406 124.132812 202.023438 124.179688 202.128906 124.199219 C 202.230469 124.214844 202.324219 124.195312 202.410156 124.136719 C 202.5 124.082031 202.554688 124 202.578125 123.898438 C 202.601562 123.796875 202.589844 123.703125 202.539062 123.613281 Z M 191.410156 106.84375 " fill-opacity="1" fill-rule="nonzero"/></g></g></g><g clip-path="url(#ac29ed0222)"><g clip-path="url(#8d76947491)"><g clip-path="url(#b8f5643033)"><path fill="#a6a6a6" d="M 228.347656 84.695312 L 208.621094 80.707031 C 208.515625 80.683594 208.414062 80.703125 208.324219 80.765625 C 208.234375 80.824219 208.175781 80.910156 208.15625 81.015625 C 208.132812 81.125 208.152344 81.222656 208.21875 81.3125 C 208.277344 81.40625 208.359375 81.460938 208.46875 81.484375 L 228.191406 85.472656 C 228.246094 85.484375 228.296875 85.484375 228.351562 85.472656 C 228.523438 85.4375 228.628906 85.332031 228.660156 85.160156 C 228.679688 85.050781 228.660156 84.953125 228.597656 84.863281 C 228.539062 84.773438 228.453125 84.714844 228.347656 84.695312 Z M 228.347656 84.695312 " fill-opacity="1" fill-rule="nonzero"/></g></g></g><g clip-path="url(#3e06df7ff0)"><g clip-path="url(#e231806543)"><g clip-path="url(#156ef61836)"><path fill="#a6a6a6" d="M 176.488281 33.304688 C 176.542969 33.3125 176.597656 33.3125 176.652344 33.304688 C 176.824219 33.265625 176.925781 33.164062 176.957031 32.988281 L 180.945312 13.261719 C 180.96875 13.152344 180.949219 13.054688 180.886719 12.964844 C 180.828125 12.871094 180.742188 12.816406 180.636719 12.792969 C 180.527344 12.773438 180.429688 12.792969 180.339844 12.855469 C 180.246094 12.917969 180.191406 13 180.171875 13.109375 L 176.179688 32.835938 C 176.160156 32.941406 176.179688 33.042969 176.238281 33.132812 C 176.300781 33.226562 176.382812 33.28125 176.488281 33.304688 Z M 176.488281 33.304688 " fill-opacity="1" fill-rule="nonzero"/></g></g></g><g clip-path="url(#c99efde96b)"><g clip-path="url(#c930dab588)"><g clip-path="url(#8d3bc8e1e9)"><path fill="#a6a6a6" d="M 160.449219 112.65625 C 160.34375 112.636719 160.242188 112.65625 160.152344 112.714844 C 160.0625 112.777344 160.003906 112.859375 159.980469 112.964844 L 155.992188 132.71875 C 155.96875 132.824219 155.992188 132.925781 156.050781 133.015625 C 156.113281 133.105469 156.195312 133.164062 156.304688 133.183594 C 156.359375 133.195312 156.410156 133.195312 156.460938 133.183594 C 156.636719 133.148438 156.738281 133.042969 156.769531 132.871094 L 160.757812 113.117188 C 160.777344 113.011719 160.757812 112.914062 160.699219 112.824219 C 160.636719 112.734375 160.554688 112.679688 160.449219 112.65625 Z M 160.449219 112.65625 " fill-opacity="1" fill-rule="nonzero"/></g></g></g><g clip-path="url(#ae33b1fa9b)"><g clip-path="url(#1d60b2b7e5)"><g clip-path="url(#41fcd6a7f4)"><path fill="#a6a6a6" d="M 168.796875 113.457031 C 168.6875 113.460938 168.59375 113.5 168.519531 113.574219 C 168.441406 113.652344 168.402344 113.742188 168.398438 113.851562 L 168.484375 124.078125 C 168.484375 124.1875 168.523438 124.28125 168.601562 124.359375 C 168.703125 124.457031 168.820312 124.492188 168.960938 124.464844 C 169.171875 124.421875 169.277344 124.289062 169.277344 124.074219 L 169.195312 113.84375 C 169.195312 113.734375 169.152344 113.640625 169.074219 113.566406 C 168.996094 113.492188 168.902344 113.457031 168.796875 113.457031 Z M 168.796875 113.457031 " fill-opacity="1" fill-rule="nonzero"/></g></g></g><g clip-path="url(#3d14583237)"><g clip-path="url(#326896b8e4)"><g clip-path="url(#71261dac4e)"><path fill="#a6a6a6" d="M 168.050781 21.339844 C 167.941406 21.339844 167.847656 21.378906 167.773438 21.457031 C 167.695312 21.535156 167.65625 21.628906 167.65625 21.738281 L 167.742188 32.136719 C 167.742188 32.246094 167.78125 32.339844 167.859375 32.414062 C 167.933594 32.492188 168.027344 32.53125 168.132812 32.53125 C 168.160156 32.527344 168.1875 32.523438 168.210938 32.515625 C 168.421875 32.472656 168.527344 32.339844 168.527344 32.125 L 168.441406 21.726562 C 168.441406 21.621094 168.398438 21.53125 168.324219 21.453125 C 168.25 21.378906 168.15625 21.339844 168.050781 21.339844 Z M 168.050781 21.339844 " fill-opacity="1" fill-rule="nonzero"/></g></g></g><g clip-path="url(#dd1a2b5b84)"><g clip-path="url(#12acb17bc0)"><g clip-path="url(#eeb1a74f8e)"><path fill="#a6a6a6" d="M 209.082031 72.378906 C 209.007812 72.457031 208.96875 72.546875 208.964844 72.65625 C 208.964844 72.765625 209.003906 72.859375 209.082031 72.933594 C 209.15625 73.011719 209.25 73.050781 209.355469 73.050781 L 219.582031 72.96875 C 219.609375 72.964844 219.636719 72.960938 219.660156 72.953125 C 219.871094 72.90625 219.976562 72.773438 219.976562 72.558594 C 219.976562 72.449219 219.9375 72.355469 219.855469 72.277344 C 219.78125 72.203125 219.691406 72.164062 219.582031 72.164062 L 209.359375 72.246094 C 209.246094 72.25 209.15625 72.296875 209.082031 72.378906 Z M 209.082031 72.378906 " fill-opacity="1" fill-rule="nonzero"/></g></g></g><g clip-path="url(#76855b6e00)"><g clip-path="url(#940dfa8294)"><g clip-path="url(#2612164692)"><path fill="#a6a6a6" d="M 204.675781 36.191406 C 204.597656 36.113281 204.503906 36.074219 204.394531 36.074219 C 204.285156 36.078125 204.191406 36.117188 204.117188 36.195312 L 196.800781 43.625 C 196.726562 43.703125 196.6875 43.796875 196.691406 43.90625 C 196.691406 44.015625 196.730469 44.109375 196.808594 44.1875 C 196.886719 44.265625 196.980469 44.304688 197.089844 44.300781 C 197.199219 44.300781 197.292969 44.261719 197.367188 44.183594 L 204.679688 36.75 C 204.757812 36.671875 204.796875 36.578125 204.796875 36.46875 C 204.792969 36.359375 204.753906 36.265625 204.675781 36.191406 Z M 204.675781 36.191406 " fill-opacity="1" fill-rule="nonzero"/></g></g></g><g clip-path="url(#2c628f8262)"><g clip-path="url(#9baa04b009)"><g clip-path="url(#42250e78fa)"><path fill="#a6a6a6" d="M 139.105469 44.652344 C 139.230469 44.773438 139.375 44.800781 139.539062 44.734375 C 139.699219 44.664062 139.78125 44.542969 139.78125 44.367188 C 139.78125 44.257812 139.742188 44.164062 139.664062 44.085938 L 132.160156 36.703125 C 132.082031 36.632812 131.988281 36.597656 131.882812 36.601562 C 131.777344 36.605469 131.6875 36.644531 131.613281 36.71875 C 131.539062 36.796875 131.5 36.886719 131.5 36.992188 C 131.496094 37.097656 131.53125 37.191406 131.605469 37.269531 Z M 139.105469 44.652344 " fill-opacity="1" fill-rule="nonzero"/></g></g></g><g clip-path="url(#ae647c3e88)"><g clip-path="url(#13e0f1a3b4)"><g clip-path="url(#1043ef2ef9)"><path fill="#a6a6a6" d="M 197.902344 101.398438 C 197.824219 101.324219 197.730469 101.285156 197.621094 101.285156 C 197.511719 101.285156 197.417969 101.324219 197.339844 101.402344 C 197.265625 101.480469 197.226562 101.570312 197.226562 101.679688 C 197.226562 101.789062 197.265625 101.878906 197.34375 101.957031 L 204.671875 109.171875 C 204.796875 109.289062 204.9375 109.316406 205.09375 109.253906 C 205.253906 109.191406 205.335938 109.074219 205.34375 108.90625 C 205.34375 108.796875 205.304688 108.703125 205.226562 108.625 Z M 197.902344 101.398438 " fill-opacity="1" fill-rule="nonzero"/></g></g></g><g clip-path="url(#a14994032e)"><g clip-path="url(#1efc6c42c9)"><g clip-path="url(#1212c79eb5)"><path fill="#a6a6a6" d="M 216.179688 53.398438 C 216.140625 53.296875 216.066406 53.226562 215.964844 53.183594 C 215.867188 53.140625 215.765625 53.140625 215.664062 53.179688 L 206.101562 57.105469 C 206.007812 57.144531 205.941406 57.210938 205.898438 57.304688 C 205.855469 57.394531 205.847656 57.488281 205.875 57.585938 C 205.90625 57.683594 205.964844 57.761719 206.050781 57.8125 C 206.140625 57.867188 206.234375 57.882812 206.332031 57.863281 L 206.40625 57.847656 L 215.96875 53.921875 C 216.070312 53.878906 216.140625 53.804688 216.183594 53.703125 C 216.222656 53.601562 216.222656 53.5 216.179688 53.398438 Z M 216.179688 53.398438 " fill-opacity="1" fill-rule="nonzero"/></g></g></g><g clip-path="url(#29cfb92fc3)"><g clip-path="url(#323250145b)"><g clip-path="url(#1b2b2f6ac0)"><path fill="#a6a6a6" d="M 149.40625 25.527344 C 149.363281 25.433594 149.289062 25.367188 149.191406 25.328125 C 149.09375 25.289062 148.996094 25.292969 148.898438 25.332031 C 148.800781 25.371094 148.730469 25.4375 148.6875 25.535156 C 148.644531 25.628906 148.636719 25.726562 148.671875 25.828125 L 152.597656 35.386719 C 152.679688 35.589844 152.832031 35.667969 153.046875 35.625 C 153.070312 35.625 153.09375 35.617188 153.117188 35.609375 C 153.21875 35.570312 153.289062 35.5 153.332031 35.398438 C 153.375 35.296875 153.375 35.195312 153.332031 35.09375 Z M 149.40625 25.527344 " fill-opacity="1" fill-rule="nonzero"/></g></g></g><g clip-path="url(#294b1788f3)"><g clip-path="url(#0586e514ec)"><g clip-path="url(#3b921165da)"><path fill="#a6a6a6" d="M 184.351562 110.625 C 184.3125 110.519531 184.242188 110.441406 184.140625 110.394531 C 184.035156 110.351562 183.929688 110.347656 183.824219 110.390625 C 183.722656 110.433594 183.648438 110.507812 183.605469 110.617188 C 183.566406 110.722656 183.570312 110.824219 183.617188 110.929688 L 187.53125 120.464844 C 187.617188 120.664062 187.765625 120.746094 187.980469 120.703125 C 188.003906 120.699219 188.027344 120.695312 188.050781 120.6875 C 188.152344 120.644531 188.226562 120.574219 188.269531 120.472656 C 188.308594 120.375 188.308594 120.273438 188.269531 120.171875 Z M 184.351562 110.625 " fill-opacity="1" fill-rule="nonzero"/></g></g></g><g clip-path="url(#8cc95ea0c2)"><g clip-path="url(#307c385cdf)"><g clip-path="url(#4e6e0dc0e5)"><path fill="#a6a6a6" d="M 205.832031 88.605469 C 205.792969 88.707031 205.792969 88.808594 205.835938 88.90625 C 205.875 89.007812 205.949219 89.074219 206.046875 89.113281 L 215.484375 93.058594 C 215.585938 93.101562 215.683594 93.101562 215.785156 93.058594 C 215.886719 93.015625 215.957031 92.945312 216 92.84375 C 216.042969 92.742188 216.046875 92.640625 216.003906 92.539062 C 215.960938 92.441406 215.886719 92.375 215.789062 92.335938 L 206.363281 88.394531 C 206.261719 88.347656 206.160156 88.34375 206.054688 88.386719 C 205.949219 88.429688 205.875 88.5 205.832031 88.605469 Z M 205.832031 88.605469 " fill-opacity="1" fill-rule="nonzero"/></g></g></g><g clip-path="url(#8c3909c475)"><g clip-path="url(#11aefc9abf)"><g clip-path="url(#86fd736928)"><path fill="#a6a6a6" d="M 184.058594 35.664062 C 184.160156 35.707031 184.261719 35.707031 184.363281 35.664062 C 184.464844 35.625 184.535156 35.554688 184.578125 35.453125 L 188.582031 25.871094 C 188.609375 25.773438 188.601562 25.679688 188.558594 25.589844 C 188.515625 25.496094 188.449219 25.429688 188.355469 25.390625 C 188.261719 25.351562 188.167969 25.347656 188.070312 25.382812 C 187.976562 25.414062 187.902344 25.476562 187.855469 25.5625 L 183.847656 35.144531 C 183.804688 35.246094 183.804688 35.347656 183.84375 35.449219 C 183.886719 35.550781 183.957031 35.625 184.058594 35.664062 Z M 184.058594 35.664062 " fill-opacity="1" fill-rule="nonzero"/></g></g></g><g clip-path="url(#9b186a1a0f)"><g clip-path="url(#3d470c56b2)"><g clip-path="url(#e8508f3fcb)"><path fill="#a6a6a6" d="M 153.085938 110.539062 C 153.042969 110.441406 152.972656 110.371094 152.875 110.332031 C 152.773438 110.289062 152.671875 110.289062 152.570312 110.332031 C 152.472656 110.371094 152.398438 110.445312 152.355469 110.542969 L 148.355469 120.117188 C 148.316406 120.21875 148.316406 120.320312 148.355469 120.421875 C 148.398438 120.519531 148.472656 120.59375 148.570312 120.632812 C 148.648438 120.667969 148.726562 120.675781 148.804688 120.660156 C 148.941406 120.628906 149.035156 120.550781 149.089844 120.421875 L 153.089844 110.851562 C 153.132812 110.746094 153.132812 110.640625 153.085938 110.539062 Z M 153.085938 110.539062 " fill-opacity="1" fill-rule="nonzero"/></g></g></g><g fill="#545454" fill-opacity="1"><g transform="translate(5.706172, 48.542762)"><g><path d="M 21.34375 -0.3125 C 21.394531 -0.3125 21.421875 -0.257812 21.421875 -0.15625 C 21.421875 -0.0507812 21.394531 0 21.34375 0 C 20.800781 0 20.367188 -0.0078125 20.046875 -0.03125 L 18.28125 -0.046875 L 16.640625 -0.03125 C 16.367188 -0.0078125 16 0 15.53125 0 C 15.488281 0 15.46875 -0.0507812 15.46875 -0.15625 C 15.46875 -0.257812 15.488281 -0.3125 15.53125 -0.3125 C 16.144531 -0.3125 16.597656 -0.359375 16.890625 -0.453125 C 17.179688 -0.554688 17.375 -0.726562 17.46875 -0.96875 C 17.570312 -1.21875 17.601562 -1.609375 17.5625 -2.140625 L 17.109375 -14.4375 L 10.921875 -0.1875 C 10.890625 -0.113281 10.820312 -0.078125 10.71875 -0.078125 C 10.625 -0.078125 10.539062 -0.113281 10.46875 -0.1875 L 4.015625 -14.34375 L 4 -14.390625 L 3.78125 -2.75 C 3.757812 -1.832031 3.90625 -1.195312 4.21875 -0.84375 C 4.539062 -0.488281 5.132812 -0.3125 6 -0.3125 C 6.039062 -0.3125 6.0625 -0.257812 6.0625 -0.15625 C 6.0625 -0.0507812 6.039062 0 6 0 C 5.507812 0 5.132812 -0.0078125 4.875 -0.03125 L 3.4375 -0.046875 L 2.140625 -0.03125 C 1.910156 -0.0078125 1.566406 0 1.109375 0 C 1.078125 0 1.0625 -0.0507812 1.0625 -0.15625 C 1.0625 -0.257812 1.078125 -0.3125 1.109375 -0.3125 C 1.847656 -0.3125 2.367188 -0.492188 2.671875 -0.859375 C 2.984375 -1.222656 3.148438 -1.851562 3.171875 -2.75 L 3.4375 -15.296875 C 2.894531 -15.910156 2.179688 -16.21875 1.296875 -16.21875 C 1.265625 -16.21875 1.25 -16.269531 1.25 -16.375 C 1.25 -16.476562 1.265625 -16.53125 1.296875 -16.53125 L 2.203125 -16.5 C 2.367188 -16.488281 2.597656 -16.484375 2.890625 -16.484375 C 3.171875 -16.484375 3.40625 -16.488281 3.59375 -16.5 C 3.789062 -16.519531 3.941406 -16.53125 4.046875 -16.53125 C 4.296875 -16.53125 4.488281 -16.445312 4.625 -16.28125 C 4.769531 -16.113281 4.984375 -15.738281 5.265625 -15.15625 L 11.21875 -2.296875 L 17.140625 -15.875 C 17.234375 -16.0625 17.351562 -16.21875 17.5 -16.34375 C 17.644531 -16.46875 17.789062 -16.53125 17.9375 -16.53125 C 18.007812 -16.53125 18.125 -16.519531 18.28125 -16.5 C 18.4375 -16.488281 18.65625 -16.484375 18.9375 -16.484375 L 20.125 -16.5 C 20.300781 -16.519531 20.578125 -16.53125 20.953125 -16.53125 C 20.984375 -16.53125 21 -16.476562 21 -16.375 C 21 -16.269531 20.984375 -16.21875 20.953125 -16.21875 C 20.035156 -16.21875 19.382812 -16.097656 19 -15.859375 C 18.625 -15.617188 18.445312 -15.144531 18.46875 -14.4375 L 18.96875 -2.140625 C 18.988281 -1.597656 19.054688 -1.203125 19.171875 -0.953125 C 19.285156 -0.703125 19.503906 -0.53125 19.828125 -0.4375 C 20.148438 -0.351562 20.65625 -0.3125 21.34375 -0.3125 Z M 21.34375 -0.3125 "/></g></g></g><g fill="#545454" fill-opacity="1"><g transform="translate(32.156117, 48.542762)"><g><path d="M 16.15625 -16.53125 C 16.195312 -16.53125 16.21875 -16.476562 16.21875 -16.375 C 16.21875 -16.269531 16.195312 -16.21875 16.15625 -16.21875 C 15.507812 -16.21875 14.875 -16.007812 14.25 -15.59375 C 13.632812 -15.175781 13.082031 -14.585938 12.59375 -13.828125 L 8.859375 -8.171875 L 8.859375 -2.140625 C 8.859375 -1.597656 8.910156 -1.203125 9.015625 -0.953125 C 9.117188 -0.703125 9.328125 -0.53125 9.640625 -0.4375 C 9.960938 -0.351562 10.476562 -0.3125 11.1875 -0.3125 C 11.238281 -0.3125 11.265625 -0.257812 11.265625 -0.15625 C 11.265625 -0.0507812 11.238281 0 11.1875 0 C 10.65625 0 10.242188 -0.0078125 9.953125 -0.03125 L 8.140625 -0.046875 L 6.34375 -0.03125 C 6.03125 -0.0078125 5.609375 0 5.078125 0 C 5.023438 0 5 -0.0507812 5 -0.15625 C 5 -0.257812 5.023438 -0.3125 5.078125 -0.3125 C 5.765625 -0.3125 6.269531 -0.351562 6.59375 -0.4375 C 6.925781 -0.53125 7.148438 -0.703125 7.265625 -0.953125 C 7.390625 -1.210938 7.453125 -1.609375 7.453125 -2.140625 L 7.453125 -7.78125 L 2.9375 -14.34375 C 2.476562 -15.03125 2.023438 -15.515625 1.578125 -15.796875 C 1.140625 -16.078125 0.597656 -16.21875 -0.046875 -16.21875 C -0.0976562 -16.21875 -0.125 -16.269531 -0.125 -16.375 C -0.125 -16.476562 -0.0976562 -16.53125 -0.046875 -16.53125 L 0.921875 -16.5 C 1.347656 -16.46875 1.664062 -16.453125 1.875 -16.453125 C 2.457031 -16.453125 3.171875 -16.46875 4.015625 -16.5 L 5.390625 -16.53125 C 5.429688 -16.53125 5.453125 -16.476562 5.453125 -16.375 C 5.453125 -16.269531 5.429688 -16.21875 5.390625 -16.21875 C 4.867188 -16.21875 4.488281 -16.175781 4.25 -16.09375 C 4.007812 -16.019531 3.890625 -15.894531 3.890625 -15.71875 C 3.890625 -15.601562 3.976562 -15.414062 4.15625 -15.15625 L 8.59375 -8.78125 L 11.984375 -13.921875 C 12.367188 -14.546875 12.5625 -15.03125 12.5625 -15.375 C 12.5625 -15.9375 12.085938 -16.21875 11.140625 -16.21875 C 11.097656 -16.21875 11.078125 -16.269531 11.078125 -16.375 C 11.078125 -16.476562 11.097656 -16.53125 11.140625 -16.53125 L 12.328125 -16.5 C 12.992188 -16.46875 13.582031 -16.453125 14.09375 -16.453125 C 14.394531 -16.453125 14.757812 -16.46875 15.1875 -16.5 Z M 16.15625 -16.53125 "/></g></g></g><g fill="#545454" fill-opacity="1"><g transform="translate(52.710077, 48.542762)"><g/></g></g><g fill="#545454" fill-opacity="1"><g transform="translate(5.706172, 85.292761)"><g><path d="M 4.921875 -2.25 C 4.921875 -1.6875 5 -1.273438 5.15625 -1.015625 C 5.3125 -0.765625 5.613281 -0.582031 6.0625 -0.46875 C 6.519531 -0.363281 7.242188 -0.3125 8.234375 -0.3125 C 8.285156 -0.3125 8.3125 -0.257812 8.3125 -0.15625 C 8.3125 -0.0507812 8.285156 0 8.234375 0 C 7.503906 0 6.9375 -0.0078125 6.53125 -0.03125 L 4.234375 -0.046875 L 2.484375 -0.03125 C 2.171875 -0.0078125 1.726562 0 1.15625 0 C 1.125 0 1.109375 -0.0507812 1.109375 -0.15625 C 1.109375 -0.257812 1.125 -0.3125 1.15625 -0.3125 C 1.851562 -0.3125 2.363281 -0.351562 2.6875 -0.4375 C 3.007812 -0.53125 3.226562 -0.703125 3.34375 -0.953125 C 3.457031 -1.210938 3.515625 -1.609375 3.515625 -2.140625 L 3.515625 -14.390625 C 3.515625 -14.921875 3.457031 -15.304688 3.34375 -15.546875 C 3.226562 -15.796875 3.007812 -15.96875 2.6875 -16.0625 C 2.363281 -16.164062 1.851562 -16.21875 1.15625 -16.21875 C 1.125 -16.21875 1.109375 -16.269531 1.109375 -16.375 C 1.109375 -16.476562 1.125 -16.53125 1.15625 -16.53125 L 2.453125 -16.5 C 3.203125 -16.46875 3.785156 -16.453125 4.203125 -16.453125 C 4.628906 -16.453125 5.113281 -16.476562 5.65625 -16.53125 C 7.03125 -16.582031 7.78125 -16.609375 7.90625 -16.609375 C 9.457031 -16.609375 10.71875 -16.25 11.6875 -15.53125 C 12.65625 -14.820312 13.140625 -13.738281 13.140625 -12.28125 C 13.140625 -11.09375 12.847656 -10.097656 12.265625 -9.296875 C 11.691406 -8.492188 10.957031 -7.898438 10.0625 -7.515625 C 9.175781 -7.128906 8.253906 -6.9375 7.296875 -6.9375 C 6.765625 -6.9375 6.332031 -6.976562 6 -7.0625 C 5.945312 -7.0625 5.921875 -7.101562 5.921875 -7.1875 C 5.921875 -7.25 5.929688 -7.304688 5.953125 -7.359375 C 5.984375 -7.410156 6.019531 -7.425781 6.0625 -7.40625 C 6.34375 -7.332031 6.660156 -7.296875 7.015625 -7.296875 C 8.265625 -7.296875 9.320312 -7.675781 10.1875 -8.4375 C 11.0625 -9.195312 11.5 -10.300781 11.5 -11.75 C 11.5 -12.675781 11.3125 -13.476562 10.9375 -14.15625 C 10.570312 -14.84375 10.066406 -15.363281 9.421875 -15.71875 C 8.785156 -16.082031 8.078125 -16.265625 7.296875 -16.265625 C 6.578125 -16.265625 6.066406 -16.226562 5.765625 -16.15625 C 5.460938 -16.09375 5.242188 -15.929688 5.109375 -15.671875 C 4.984375 -15.421875 4.921875 -14.976562 4.921875 -14.34375 Z M 4.921875 -2.25 "/></g></g></g><g fill="#545454" fill-opacity="1"><g transform="translate(24.485829, 85.292761)"><g><path d="M 9.6875 0.3125 C 8.039062 0.3125 6.578125 -0.0664062 5.296875 -0.828125 C 4.023438 -1.597656 3.039062 -2.640625 2.34375 -3.953125 C 1.644531 -5.265625 1.296875 -6.695312 1.296875 -8.25 C 1.296875 -10.070312 1.753906 -11.628906 2.671875 -12.921875 C 3.585938 -14.210938 4.765625 -15.1875 6.203125 -15.84375 C 7.640625 -16.5 9.109375 -16.828125 10.609375 -16.828125 C 12.285156 -16.828125 13.757812 -16.429688 15.03125 -15.640625 C 16.300781 -14.859375 17.273438 -13.820312 17.953125 -12.53125 C 18.628906 -11.25 18.96875 -9.882812 18.96875 -8.4375 C 18.96875 -6.832031 18.539062 -5.359375 17.6875 -4.015625 C 16.84375 -2.679688 15.710938 -1.625 14.296875 -0.84375 C 12.878906 -0.0703125 11.34375 0.3125 9.6875 0.3125 Z M 10.640625 -0.21875 C 11.890625 -0.21875 13.015625 -0.503906 14.015625 -1.078125 C 15.023438 -1.660156 15.820312 -2.515625 16.40625 -3.640625 C 16.988281 -4.773438 17.28125 -6.128906 17.28125 -7.703125 C 17.28125 -9.359375 16.957031 -10.832031 16.3125 -12.125 C 15.664062 -13.425781 14.753906 -14.4375 13.578125 -15.15625 C 12.410156 -15.875 11.050781 -16.234375 9.5 -16.234375 C 7.445312 -16.234375 5.847656 -15.597656 4.703125 -14.328125 C 3.554688 -13.066406 2.984375 -11.34375 2.984375 -9.15625 C 2.984375 -7.507812 3.304688 -6.003906 3.953125 -4.640625 C 4.597656 -3.273438 5.5 -2.195312 6.65625 -1.40625 C 7.820312 -0.613281 9.148438 -0.21875 10.640625 -0.21875 Z M 10.640625 -0.21875 "/></g></g></g><g fill="#545454" fill-opacity="1"><g transform="translate(49.243021, 85.292761)"><g><path d="M 17.875 -0.3125 C 17.9375 -0.3125 17.96875 -0.257812 17.96875 -0.15625 C 17.96875 -0.0507812 17.9375 0 17.875 0 L 14.8125 0 C 14.351562 0 13.5 -0.757812 12.25 -2.28125 C 11 -3.8125 9.484375 -5.925781 7.703125 -8.625 C 7.171875 -8.476562 6.628906 -8.40625 6.078125 -8.40625 C 5.785156 -8.40625 5.410156 -8.425781 4.953125 -8.46875 L 4.953125 -2.140625 C 4.953125 -1.597656 5.007812 -1.203125 5.125 -0.953125 C 5.238281 -0.703125 5.453125 -0.53125 5.765625 -0.4375 C 6.085938 -0.351562 6.597656 -0.3125 7.296875 -0.3125 C 7.347656 -0.3125 7.375 -0.257812 7.375 -0.15625 C 7.375 -0.0507812 7.347656 0 7.296875 0 C 6.765625 0 6.34375 -0.0078125 6.03125 -0.03125 L 4.234375 -0.046875 L 2.484375 -0.03125 C 2.171875 -0.0078125 1.726562 0 1.15625 0 C 1.125 0 1.109375 -0.0507812 1.109375 -0.15625 C 1.109375 -0.257812 1.125 -0.3125 1.15625 -0.3125 C 1.863281 -0.3125 2.378906 -0.351562 2.703125 -0.4375 C 3.035156 -0.53125 3.265625 -0.703125 3.390625 -0.953125 C 3.515625 -1.210938 3.578125 -1.609375 3.578125 -2.140625 L 3.578125 -14.390625 C 3.578125 -14.921875 3.519531 -15.304688 3.40625 -15.546875 C 3.289062 -15.796875 3.066406 -15.96875 2.734375 -16.0625 C 2.410156 -16.164062 1.90625 -16.21875 1.21875 -16.21875 C 1.164062 -16.21875 1.140625 -16.269531 1.140625 -16.375 C 1.140625 -16.476562 1.164062 -16.53125 1.21875 -16.53125 L 2.484375 -16.5 C 3.191406 -16.46875 3.773438 -16.453125 4.234375 -16.453125 C 4.546875 -16.453125 4.84375 -16.457031 5.125 -16.46875 C 5.414062 -16.488281 5.664062 -16.507812 5.875 -16.53125 C 6.414062 -16.582031 6.898438 -16.609375 7.328125 -16.609375 C 8.722656 -16.609375 9.789062 -16.316406 10.53125 -15.734375 C 11.269531 -15.148438 11.640625 -14.34375 11.640625 -13.3125 C 11.640625 -12.457031 11.390625 -11.65625 10.890625 -10.90625 C 10.398438 -10.15625 9.75 -9.5625 8.9375 -9.125 C 10.476562 -6.863281 11.757812 -5.109375 12.78125 -3.859375 C 13.800781 -2.609375 14.710938 -1.703125 15.515625 -1.140625 C 16.316406 -0.585938 17.101562 -0.3125 17.875 -0.3125 Z M 4.953125 -9.09375 C 5.617188 -9.03125 6.144531 -9 6.53125 -9 C 7.820312 -9 8.75 -9.265625 9.3125 -9.796875 C 9.875 -10.335938 10.15625 -11.207031 10.15625 -12.40625 C 10.15625 -13.75 9.84375 -14.726562 9.21875 -15.34375 C 8.59375 -15.957031 7.757812 -16.265625 6.71875 -16.265625 C 6.226562 -16.265625 5.867188 -16.226562 5.640625 -16.15625 C 5.410156 -16.09375 5.238281 -15.925781 5.125 -15.65625 C 5.007812 -15.394531 4.953125 -14.957031 4.953125 -14.34375 Z M 4.953125 -9.09375 "/></g></g></g><g fill="#545454" fill-opacity="1"><g transform="translate(71.381736, 85.292761)"><g><path d="M 4.765625 -16.078125 C 3.648438 -16.078125 2.835938 -15.8125 2.328125 -15.28125 C 1.816406 -14.757812 1.472656 -13.816406 1.296875 -12.453125 C 1.296875 -12.421875 1.242188 -12.40625 1.140625 -12.40625 C 1.035156 -12.40625 0.984375 -12.421875 0.984375 -12.453125 C 1.046875 -12.929688 1.117188 -13.695312 1.203125 -14.75 C 1.296875 -15.800781 1.34375 -16.585938 1.34375 -17.109375 C 1.34375 -17.203125 1.394531 -17.25 1.5 -17.25 C 1.613281 -17.25 1.671875 -17.203125 1.671875 -17.109375 C 1.671875 -16.722656 2.132812 -16.53125 3.0625 -16.53125 C 4.582031 -16.476562 6.359375 -16.453125 8.390625 -16.453125 C 9.429688 -16.453125 10.53125 -16.46875 11.6875 -16.5 L 13.484375 -16.53125 C 14.117188 -16.53125 14.585938 -16.570312 14.890625 -16.65625 C 15.191406 -16.75 15.382812 -16.925781 15.46875 -17.1875 C 15.488281 -17.257812 15.539062 -17.296875 15.625 -17.296875 C 15.71875 -17.296875 15.765625 -17.257812 15.765625 -17.1875 C 15.710938 -16.695312 15.660156 -15.941406 15.609375 -14.921875 C 15.554688 -13.910156 15.53125 -13.085938 15.53125 -12.453125 C 15.53125 -12.421875 15.472656 -12.40625 15.359375 -12.40625 C 15.253906 -12.40625 15.203125 -12.421875 15.203125 -12.453125 C 15.203125 -13.390625 15.101562 -14.113281 14.90625 -14.625 C 14.71875 -15.132812 14.394531 -15.503906 13.9375 -15.734375 C 13.476562 -15.960938 12.835938 -16.078125 12.015625 -16.078125 C 11.097656 -16.078125 10.453125 -16.046875 10.078125 -15.984375 C 9.703125 -15.921875 9.445312 -15.773438 9.3125 -15.546875 C 9.1875 -15.316406 9.125 -14.914062 9.125 -14.34375 L 9.125 -2.140625 C 9.125 -1.597656 9.1875 -1.203125 9.3125 -0.953125 C 9.4375 -0.703125 9.679688 -0.53125 10.046875 -0.4375 C 10.421875 -0.351562 11.003906 -0.3125 11.796875 -0.3125 C 11.828125 -0.3125 11.84375 -0.257812 11.84375 -0.15625 C 11.84375 -0.0507812 11.828125 0 11.796875 0 C 11.210938 0 10.753906 -0.0078125 10.421875 -0.03125 L 8.390625 -0.046875 L 6.453125 -0.03125 C 6.097656 -0.0078125 5.613281 0 5 0 C 4.96875 0 4.953125 -0.0507812 4.953125 -0.15625 C 4.953125 -0.257812 4.96875 -0.3125 5 -0.3125 C 5.789062 -0.3125 6.367188 -0.351562 6.734375 -0.4375 C 7.109375 -0.53125 7.363281 -0.703125 7.5 -0.953125 C 7.632812 -1.210938 7.703125 -1.609375 7.703125 -2.140625 L 7.703125 -14.390625 C 7.703125 -14.972656 7.628906 -15.375 7.484375 -15.59375 C 7.347656 -15.8125 7.097656 -15.945312 6.734375 -16 C 6.367188 -16.050781 5.710938 -16.078125 4.765625 -16.078125 Z M 4.765625 -16.078125 "/></g></g></g><g fill="#545454" fill-opacity="1"><g transform="translate(92.594727, 85.292761)"><g><path d="M 11.9375 -13.09375 C 11.9375 -13.039062 11.882812 -13.015625 11.78125 -13.015625 C 11.6875 -13.015625 11.640625 -13.039062 11.640625 -13.09375 C 11.640625 -13.988281 11.398438 -14.703125 10.921875 -15.234375 C 10.441406 -15.765625 9.816406 -16.03125 9.046875 -16.03125 L 7.21875 -16.03125 C 6.570312 -16.03125 6.085938 -15.984375 5.765625 -15.890625 C 5.453125 -15.804688 5.234375 -15.648438 5.109375 -15.421875 C 4.984375 -15.191406 4.921875 -14.835938 4.921875 -14.359375 L 4.921875 -8.546875 L 7.796875 -8.546875 C 8.703125 -8.546875 9.335938 -8.679688 9.703125 -8.953125 C 10.078125 -9.222656 10.265625 -9.695312 10.265625 -10.375 C 10.265625 -10.40625 10.316406 -10.421875 10.421875 -10.421875 C 10.523438 -10.421875 10.578125 -10.40625 10.578125 -10.375 L 10.5625 -8.28125 C 10.5625 -7.769531 10.566406 -7.390625 10.578125 -7.140625 L 10.609375 -5.90625 C 10.609375 -5.863281 10.554688 -5.84375 10.453125 -5.84375 C 10.347656 -5.84375 10.296875 -5.863281 10.296875 -5.90625 C 10.296875 -6.695312 10.101562 -7.25 9.71875 -7.5625 C 9.34375 -7.882812 8.671875 -8.046875 7.703125 -8.046875 L 4.921875 -8.046875 L 4.921875 -2.25 C 4.921875 -1.6875 5 -1.273438 5.15625 -1.015625 C 5.3125 -0.765625 5.613281 -0.582031 6.0625 -0.46875 C 6.519531 -0.363281 7.242188 -0.3125 8.234375 -0.3125 C 8.285156 -0.3125 8.3125 -0.257812 8.3125 -0.15625 C 8.3125 -0.0507812 8.285156 0 8.234375 0 C 7.503906 0 6.9375 -0.0078125 6.53125 -0.03125 L 4.234375 -0.046875 L 2.484375 -0.03125 C 2.171875 -0.0078125 1.726562 0 1.15625 0 C 1.125 0 1.109375 -0.0507812 1.109375 -0.15625 C 1.109375 -0.257812 1.125 -0.3125 1.15625 -0.3125 C 1.851562 -0.3125 2.363281 -0.351562 2.6875 -0.4375 C 3.007812 -0.53125 3.226562 -0.703125 3.34375 -0.953125 C 3.457031 -1.210938 3.515625 -1.609375 3.515625 -2.140625 L 3.515625 -14.390625 C 3.515625 -14.921875 3.457031 -15.304688 3.34375 -15.546875 C 3.226562 -15.796875 3.007812 -15.96875 2.6875 -16.0625 C 2.363281 -16.164062 1.851562 -16.21875 1.15625 -16.21875 C 1.125 -16.21875 1.109375 -16.269531 1.109375 -16.375 C 1.109375 -16.476562 1.125 -16.53125 1.15625 -16.53125 L 11.640625 -16.53125 C 11.796875 -16.53125 11.875 -16.453125 11.875 -16.296875 Z M 11.9375 -13.09375 "/></g></g></g><g fill="#545454" fill-opacity="1"><g transform="translate(110.475112, 85.292761)"><g><path d="M 9.6875 0.3125 C 8.039062 0.3125 6.578125 -0.0664062 5.296875 -0.828125 C 4.023438 -1.597656 3.039062 -2.640625 2.34375 -3.953125 C 1.644531 -5.265625 1.296875 -6.695312 1.296875 -8.25 C 1.296875 -10.070312 1.753906 -11.628906 2.671875 -12.921875 C 3.585938 -14.210938 4.765625 -15.1875 6.203125 -15.84375 C 7.640625 -16.5 9.109375 -16.828125 10.609375 -16.828125 C 12.285156 -16.828125 13.757812 -16.429688 15.03125 -15.640625 C 16.300781 -14.859375 17.273438 -13.820312 17.953125 -12.53125 C 18.628906 -11.25 18.96875 -9.882812 18.96875 -8.4375 C 18.96875 -6.832031 18.539062 -5.359375 17.6875 -4.015625 C 16.84375 -2.679688 15.710938 -1.625 14.296875 -0.84375 C 12.878906 -0.0703125 11.34375 0.3125 9.6875 0.3125 Z M 10.640625 -0.21875 C 11.890625 -0.21875 13.015625 -0.503906 14.015625 -1.078125 C 15.023438 -1.660156 15.820312 -2.515625 16.40625 -3.640625 C 16.988281 -4.773438 17.28125 -6.128906 17.28125 -7.703125 C 17.28125 -9.359375 16.957031 -10.832031 16.3125 -12.125 C 15.664062 -13.425781 14.753906 -14.4375 13.578125 -15.15625 C 12.410156 -15.875 11.050781 -16.234375 9.5 -16.234375 C 7.445312 -16.234375 5.847656 -15.597656 4.703125 -14.328125 C 3.554688 -13.066406 2.984375 -11.34375 2.984375 -9.15625 C 2.984375 -7.507812 3.304688 -6.003906 3.953125 -4.640625 C 4.597656 -3.273438 5.5 -2.195312 6.65625 -1.40625 C 7.820312 -0.613281 9.148438 -0.21875 10.640625 -0.21875 Z M 10.640625 -0.21875 "/></g></g></g><g fill="#545454" fill-opacity="1"><g transform="translate(135.232299, 85.292761)"><g><path d="M 4.703125 -2.25 C 4.703125 -1.738281 4.757812 -1.363281 4.875 -1.125 C 4.988281 -0.882812 5.203125 -0.71875 5.515625 -0.625 C 5.828125 -0.539062 6.316406 -0.5 6.984375 -0.5 L 10.375 -0.5 C 12.113281 -0.5 13.144531 -1.617188 13.46875 -3.859375 C 13.46875 -3.910156 13.515625 -3.929688 13.609375 -3.921875 C 13.703125 -3.921875 13.75 -3.890625 13.75 -3.828125 C 13.59375 -2.441406 13.515625 -1.296875 13.515625 -0.390625 C 13.515625 -0.253906 13.488281 -0.15625 13.4375 -0.09375 C 13.382812 -0.03125 13.28125 0 13.125 0 L 0.953125 0 C 0.921875 0 0.90625 -0.0507812 0.90625 -0.15625 C 0.90625 -0.257812 0.921875 -0.3125 0.953125 -0.3125 C 1.640625 -0.3125 2.144531 -0.351562 2.46875 -0.4375 C 2.800781 -0.53125 3.023438 -0.703125 3.140625 -0.953125 C 3.253906 -1.210938 3.3125 -1.609375 3.3125 -2.140625 L 3.3125 -14.390625 C 3.3125 -14.921875 3.253906 -15.304688 3.140625 -15.546875 C 3.023438 -15.796875 2.800781 -15.96875 2.46875 -16.0625 C 2.144531 -16.164062 1.640625 -16.21875 0.953125 -16.21875 C 0.921875 -16.21875 0.90625 -16.269531 0.90625 -16.375 C 0.90625 -16.476562 0.921875 -16.53125 0.953125 -16.53125 L 2.25 -16.5 C 2.988281 -16.46875 3.570312 -16.453125 4 -16.453125 C 4.46875 -16.453125 5.070312 -16.46875 5.8125 -16.5 L 7.0625 -16.53125 C 7.09375 -16.53125 7.109375 -16.476562 7.109375 -16.375 C 7.109375 -16.269531 7.09375 -16.21875 7.0625 -16.21875 C 6.375 -16.21875 5.863281 -16.164062 5.53125 -16.0625 C 5.207031 -15.96875 4.988281 -15.789062 4.875 -15.53125 C 4.757812 -15.28125 4.703125 -14.890625 4.703125 -14.359375 Z M 4.703125 -2.25 "/></g></g></g><g fill="#545454" fill-opacity="1"><g transform="translate(153.747466, 85.292761)"><g><path d="M 5.078125 -2.140625 C 5.078125 -1.597656 5.132812 -1.203125 5.25 -0.953125 C 5.363281 -0.703125 5.578125 -0.53125 5.890625 -0.4375 C 6.210938 -0.351562 6.726562 -0.3125 7.4375 -0.3125 C 7.46875 -0.3125 7.484375 -0.257812 7.484375 -0.15625 C 7.484375 -0.0507812 7.46875 0 7.4375 0 C 6.90625 0 6.488281 -0.0078125 6.1875 -0.03125 L 4.34375 -0.046875 L 2.5625 -0.03125 C 2.25 -0.0078125 1.816406 0 1.265625 0 C 1.210938 0 1.1875 -0.0507812 1.1875 -0.15625 C 1.1875 -0.257812 1.210938 -0.3125 1.265625 -0.3125 C 1.953125 -0.3125 2.457031 -0.351562 2.78125 -0.4375 C 3.113281 -0.53125 3.34375 -0.703125 3.46875 -0.953125 C 3.59375 -1.210938 3.65625 -1.609375 3.65625 -2.140625 L 3.65625 -14.390625 C 3.65625 -14.921875 3.59375 -15.304688 3.46875 -15.546875 C 3.34375 -15.796875 3.113281 -15.96875 2.78125 -16.0625 C 2.457031 -16.164062 1.953125 -16.21875 1.265625 -16.21875 C 1.210938 -16.21875 1.1875 -16.269531 1.1875 -16.375 C 1.1875 -16.476562 1.210938 -16.53125 1.265625 -16.53125 L 2.5625 -16.5 C 3.300781 -16.46875 3.894531 -16.453125 4.34375 -16.453125 C 4.832031 -16.453125 5.445312 -16.46875 6.1875 -16.5 L 7.4375 -16.53125 C 7.46875 -16.53125 7.484375 -16.476562 7.484375 -16.375 C 7.484375 -16.269531 7.46875 -16.21875 7.4375 -16.21875 C 6.75 -16.21875 6.238281 -16.160156 5.90625 -16.046875 C 5.582031 -15.941406 5.363281 -15.757812 5.25 -15.5 C 5.132812 -15.25 5.078125 -14.863281 5.078125 -14.34375 Z M 5.078125 -2.140625 "/></g></g></g><g fill="#545454" fill-opacity="1"><g transform="translate(166.972784, 85.292761)"><g><path d="M 9.6875 0.3125 C 8.039062 0.3125 6.578125 -0.0664062 5.296875 -0.828125 C 4.023438 -1.597656 3.039062 -2.640625 2.34375 -3.953125 C 1.644531 -5.265625 1.296875 -6.695312 1.296875 -8.25 C 1.296875 -10.070312 1.753906 -11.628906 2.671875 -12.921875 C 3.585938 -14.210938 4.765625 -15.1875 6.203125 -15.84375 C 7.640625 -16.5 9.109375 -16.828125 10.609375 -16.828125 C 12.285156 -16.828125 13.757812 -16.429688 15.03125 -15.640625 C 16.300781 -14.859375 17.273438 -13.820312 17.953125 -12.53125 C 18.628906 -11.25 18.96875 -9.882812 18.96875 -8.4375 C 18.96875 -6.832031 18.539062 -5.359375 17.6875 -4.015625 C 16.84375 -2.679688 15.710938 -1.625 14.296875 -0.84375 C 12.878906 -0.0703125 11.34375 0.3125 9.6875 0.3125 Z M 10.640625 -0.21875 C 11.890625 -0.21875 13.015625 -0.503906 14.015625 -1.078125 C 15.023438 -1.660156 15.820312 -2.515625 16.40625 -3.640625 C 16.988281 -4.773438 17.28125 -6.128906 17.28125 -7.703125 C 17.28125 -9.359375 16.957031 -10.832031 16.3125 -12.125 C 15.664062 -13.425781 14.753906 -14.4375 13.578125 -15.15625 C 12.410156 -15.875 11.050781 -16.234375 9.5 -16.234375 C 7.445312 -16.234375 5.847656 -15.597656 4.703125 -14.328125 C 3.554688 -13.066406 2.984375 -11.34375 2.984375 -9.15625 C 2.984375 -7.507812 3.304688 -6.003906 3.953125 -4.640625 C 4.597656 -3.273438 5.5 -2.195312 6.65625 -1.40625 C 7.820312 -0.613281 9.148438 -0.21875 10.640625 -0.21875 Z M 10.640625 -0.21875 "/></g></g></g></svg>